<?xml version="1.0" encoding="UTF-8"?>
<svg width="19px" height="19px" viewBox="0 0 407 470" version="1.1" xmlns="http://www.w3.org/2000/svg" xmlns:xlink="http://www.w3.org/1999/xlink">
    <!-- Generator: Sketch 46.2 (44496) - http://www.bohemiancoding.com/sketch -->
    <defs></defs>
    <g id="Page-1" stroke="none" stroke-width="1" fill="none" fill-rule="evenodd">
        <g id="noun-coin-2705017" fill-rule="nonzero" fill="#FEBD17">
            <path d="M286.789745,211 L120.209656,211 C116.779362,211 114,213.783586 114,217.228039 C114,266.727475 154.149663,307 203.5,307 C252.850337,307 293,266.727475 293,217.228039 C293,213.78759 290.220638,211 286.790344,211 L286.789745,211 Z M203.499701,294.544622 C163.088587,294.544622 129.83843,263.189742 126.669088,223.456679 L280.336301,223.456679 C277.163266,263.189742 243.912811,294.544622 203.501696,294.544622 L203.499701,294.544622 Z" id="Shape"></path>
            <path d="M203.495177,0 C91.2881162,0 0,91.4180225 0,203.795909 L0,266.204279 C0,335.345818 34.5901841,396.515605 87.3181121,433.372951 C87.3220141,433.376859 87.3259172,433.376859 87.3298193,433.380767 C120.296637,456.430614 160.334338,470 203.502888,470 C273.077859,470 334.580955,434.835451 371.294002,381.341276 C371.329123,381.306103 371.344732,381.259205 371.375951,381.224031 C393.826354,348.462613 406.996098,308.853973 406.996098,266.209904 L407,203.797532 C407,91.4246476 315.708887,0.00162276369 203.504823,0.00162276369 L203.495177,0 Z M33.875903,354.116652 C21.4084518,330.085342 13.8690405,303.104645 12.6432742,274.497182 C18.1260557,289.293145 25.2865484,303.268722 33.875903,316.223819 L33.875903,354.116652 Z M85.4999421,416.533026 C70.4560841,404.66444 57.2273991,390.602823 46.3093884,374.806389 L46.3093884,333.083753 C57.6929306,346.942275 70.8936437,359.23306 85.4999421,369.682978 L85.4999421,416.533026 Z M141.88419,447.2895 C126.223952,441.931479 111.469803,434.619538 97.9284325,425.591289 L97.9284325,377.970878 C111.605666,386.314605 126.348827,393.071985 141.88419,398.027317 L141.88419,447.2895 Z M197.281431,457.396257 C182.476333,456.919472 168.091811,454.773922 154.316676,451.096392 L154.316676,401.550075 C168.138764,405.000899 182.515294,406.997938 197.281431,407.443448 L197.281431,457.396257 Z M252.647704,451.104195 C238.880561,454.777824 224.508027,456.919432 209.713918,457.396257 L209.713918,407.442748 C224.469066,406.997228 238.836605,405.000198 252.647704,401.553276 L252.647704,451.104195 Z M303.436583,429.210892 C291.460637,436.60107 278.606575,442.674228 265.08019,447.297404 L265.08019,398.040223 C278.527655,393.753005 291.354744,388.082437 303.436583,381.22731 L303.436583,429.210892 Z M360.687958,374.806289 C348.427299,392.548638 333.258567,408.114964 315.870069,420.827947 L315.870069,373.602722 C332.736093,362.370436 347.857872,348.708006 360.687958,333.083653 L360.687958,374.806289 Z M373.120445,354.116552 L373.120445,316.223719 C381.7095,303.268622 388.870592,289.293045 394.353073,274.497082 C393.127707,303.104545 385.588495,330.082241 373.120445,354.116552 Z M204.220447,395.131854 C203.974604,395.104498 203.756074,394.987256 203.498513,394.987256 C203.240953,394.987256 203.022433,395.104501 202.77658,395.131854 C97.7622797,394.74105 12.4281707,309.071353 12.4281707,203.801812 C12.4281707,98.3021623 98.1428966,12.4617647 203.495856,12.4617647 C308.848816,12.4617647 394.563542,98.2991608 394.563542,203.801812 C394.563542,309.071353 309.239423,394.74167 204.215132,395.131854 L204.220447,395.131854 Z" id="Shape"></path>
            <path d="M204,42 C114.671339,42 42,114.671581 42,203.995007 C42,293.318433 114.669342,366 204,366 C293.324667,366 366,293.324424 366,203.995007 C366,114.663593 293.326664,42 204,42 Z M204,353.57802 C121.524186,353.57802 54.4215976,286.476358 54.4215976,203.995007 C54.4215976,121.520646 121.521191,54.4219805 204,54.4219805 C286.478809,54.4219805 353.568417,121.515653 353.568417,203.995007 C353.568417,286.474361 286.472818,353.57802 204,353.57802 Z" id="Shape"></path>
            <path d="M145.240296,150.487335 L145.240296,168.837068 C141.212618,167.07999 138.469826,164.041083 138.469826,160.647709 C138.469826,157.219228 135.668086,154.441335 132.210172,154.441335 C128.752259,154.441335 125.950518,157.215238 125.950518,160.647709 C125.950518,170.656382 134.123769,179.040329 145.240396,181.791093 L145.240396,183.793625 C145.240396,187.222107 148.042136,190 151.50005,190 C154.957964,190 157.759704,187.226097 157.759704,183.793625 L157.759704,182.433902 C170.377192,180.567711 180,171.536567 180,160.6512 C180,149.765833 170.376789,140.734589 157.759704,138.872488 L157.759704,120.518766 C161.787382,122.275844 164.530174,125.31475 164.530174,128.708124 C164.530174,132.136606 167.331914,134.914499 170.789828,134.914499 C174.247741,134.914499 177.049482,132.140595 177.049482,128.708124 C177.049482,118.699451 168.876231,110.315505 157.759604,107.564741 L157.759604,104.206375 C157.759604,100.777893 154.957864,98 151.49995,98 C148.042036,98 145.240296,100.773903 145.240296,104.206375 L145.240296,106.925821 C132.622808,108.792012 123,117.823156 123,128.708523 C123,139.5899 132.623211,148.621144 145.240296,150.487236 L145.240296,150.487335 Z M157.759201,151.492491 C163.342965,152.859994 167.480692,156.483264 167.480692,160.644218 C167.480692,164.812953 163.342965,168.436222 157.759201,169.803725 L157.759201,151.492491 Z M145.240296,119.545526 L145.240296,137.864339 C139.656532,136.496837 135.518805,132.873567 135.518805,128.704833 C135.518805,124.536099 139.652609,120.912829 145.240296,119.545326 L145.240296,119.545526 Z" id="Shape"></path>
            <path d="M250.240296,150.487335 L250.240296,168.837068 C246.212618,167.07999 243.469826,164.041083 243.469826,160.647709 C243.469826,157.219228 240.668086,154.441335 237.210172,154.441335 C233.752259,154.441335 230.950518,157.215238 230.950518,160.647709 C230.950518,170.656382 239.123769,179.040329 250.240396,181.791093 L250.240396,183.793625 C250.240396,187.222107 253.042136,190 256.50005,190 C259.957964,190 262.759704,187.226097 262.759704,183.793625 L262.759704,182.433902 C275.377192,180.567711 285,171.536567 285,160.6512 C285,149.765833 275.376789,140.734589 262.759704,138.872488 L262.759704,120.518766 C266.787382,122.275844 269.530174,125.31475 269.530174,128.708124 C269.530174,132.136606 272.331914,134.914499 275.789828,134.914499 C279.247741,134.914499 282.049482,132.140595 282.049482,128.708124 C282.049482,118.699451 273.876231,110.315505 262.759604,107.564741 L262.759604,104.206375 C262.759604,100.777893 259.957864,98 256.49995,98 C253.042036,98 250.240296,100.773903 250.240296,104.206375 L250.240296,106.925821 C237.622808,108.792012 228,117.823156 228,128.708523 C228.003929,139.5899 237.623211,148.621144 250.240296,150.487236 L250.240296,150.487335 Z M262.759201,151.492491 C268.342965,152.859994 272.480692,156.483264 272.480692,160.644218 C272.480692,164.812953 268.342965,168.436222 262.759201,169.803725 L262.759201,151.492491 Z M250.240296,119.545526 L250.240296,137.864339 C244.656532,136.496837 240.518805,132.873567 240.518805,128.704833 C240.518805,124.536099 244.656532,120.912829 250.240296,119.545326 L250.240296,119.545526 Z" id="Shape"></path>
        </g>
    </g>
</svg>