<?xml version="1.0" encoding="UTF-8"?>
<svg width="19px" height="19px" viewBox="0 0 470 470" version="1.1" xmlns="http://www.w3.org/2000/svg" xmlns:xlink="http://www.w3.org/1999/xlink">
    <!-- Generator: Sketch 46.2 (44496) - http://www.bohemiancoding.com/sketch -->
    <defs></defs>
    <g id="Page-1" stroke="none" stroke-width="1" fill="none" fill-rule="evenodd">
        <g id="noun-coin-4164751" fill-rule="nonzero" fill="#FEBD17">
            <path d="M151.3,327.2 C134.019,327.180469 117.448,320.3055 105.23,308.083 C93.007,295.864 86.132,279.294 86.113,262.013 C86.187218,260.1575 85.50362,258.3568 84.2185,257.0169 C82.9333,255.681 81.1599,254.9271 79.3044,254.9271 C77.4489,254.9271 75.6755,255.68101 74.3903,257.0169 C73.1051,258.3567 72.4215,260.1575 72.4958,262.013 C72.480175,279.294 65.6052,295.865 53.3868,308.083 C41.1678,320.306 24.6018,327.181 7.3208,327.2 C5.4653,327.125781 3.6646,327.80938 2.3247,329.0945 C0.9888,330.3797 0.2349,332.1531 0.2349,334.0086 C0.2349,335.8641 0.98881,337.6375 2.3247,338.9227 C3.6645,340.2079 5.4653,340.8915 7.3208,340.8172 C24.6018,340.832825 41.1688,347.7078 53.3868,359.9262 C65.6048,372.1446 72.4808,388.7112 72.4958,405.9922 C72.64424,409.6445 75.6481,412.5352 79.3044,412.5352 C82.9607,412.5352 85.9646,409.6446 86.113,405.9922 C86.132531,388.7112 93.0075,372.1442 105.23,359.9262 C117.449,347.7032 134.019,340.8322 151.3,340.8172 C154.9523,340.66876 157.843,337.6649 157.843,334.0086 C157.843,330.3523 154.9524,327.3445 151.3,327.2 L151.3,327.2 Z M79.277,373.958 C71.3239,356.188 57.117,341.97 39.355,334.001 C57.117,326.0362 71.324,311.813 79.277,294.048 C87.2418,311.821 101.468,326.04 119.242,334.001 C101.469,341.9619 87.242,356.185 79.277,373.958 Z" id="Shape"></path>
            <path d="M424.68,117.56 C413.758,117.548281 403.289,113.2045 395.563,105.486 C387.8403,97.7633 383.493,87.291 383.481,76.369 C383.33256,72.7167 380.3287,69.8299 376.6724,69.8299 C373.0122,69.8299 370.0083,72.7166 369.8638,76.369 C369.848175,87.291 365.5005,97.764 357.7778,105.486 C350.0551,113.2048 339.5828,117.548 328.6608,117.56 C325.0085,117.70844 322.1178,120.7123 322.1178,124.3686 C322.1178,128.0249 325.0084,131.0327 328.6608,131.1772 C339.5828,131.192825 350.0558,135.5366 357.7778,143.2632 C365.5005,150.9859 369.8478,161.4582 369.8638,172.3802 C369.789581,174.2318 370.47318,176.0364 371.7583,177.3724 C373.0435,178.7122 374.8169,179.4662 376.6724,179.4662 C378.524,179.4662 380.3013,178.71229 381.5865,177.3724 C382.8677,176.0365 383.5553,174.2318 383.481,172.3802 C383.496626,161.4582 387.8443,150.9892 395.567,143.2632 C403.2897,135.5405 413.758,131.1972 424.68,131.1772 C426.5355,131.251419 428.3362,130.56782 429.6761,129.2827 C431.012,127.9975 431.7659,126.2241 431.7659,124.3686 C431.7659,122.5131 431.01199,120.7397 429.6761,119.4545 C428.3363,118.1693 426.5355,117.4857 424.68,117.56 L424.68,117.56 Z M376.676,145.931 C371.6526,136.8646 364.176,129.396 355.106,124.376 C364.1763,119.3487 371.653,111.876 376.676,102.806 C381.6955,111.8763 389.164,119.349 398.235,124.376 C389.1686,129.3955 381.696,136.864 376.676,145.931 L376.676,145.931 Z" id="Shape"></path>
            <path d="M388.02,195.46 C359.211,166.651 288.489,192.1788 227.1,253.648 C165.709,315.117 140.116,385.758 168.967,414.568 L196.014,441.627 C203.9671,449.6348 215.233,453.408 228.619,453.408 C263.377,453.408 312.541,427.76 356.889,383.408 C385.522,354.775 407.53,322.791 418.85,293.338 C430.881,262.1 429.526,236.932 415.0648,222.486 L388.02,195.46 Z M410.344,275.304 L394.199,259.171 C398.0506,247.327 399.9646,236.202 399.6678,226.359 L405.3983,232.1012 C413.8671,240.5778 415.4413,255.9762 410.3436,275.3242 L410.344,275.304 Z M236.774,263.273 C277.801,222.246 324.962,197.015 355.254,197.015 C364.9649,197.015 372.942,199.6088 378.43,205.097 C401.047,227.726 374.4066,292.597 320.242,346.757 C292.898,374.101 262.625,394.991 234.93,405.644 C209.403,415.4878 188.86,415.1909 178.59,404.94478 C155.91,382.31178 182.5509,317.44078 236.77,263.26478 L236.774,263.273 Z M205.59,431.993 L199.9455,426.3485 C200.51581,426.3485 201.0393,426.48131 201.5861,426.48131 C210.7072,426.48131 220.9771,424.59071 232.0781,421.01251 L248.2661,437.18851 C229.7191,442.05571 214.4181,440.81741 205.5901,431.99321 L205.59,431.993 Z M347.24,373.813 C319.49,401.563 288.955,422.016 262.705,432.383 L246.002,415.68 C273.697,403.782 303.182,383.008 329.814,356.375 C357.224,328.965 377.423,299.73 388.876,273.172 L405.513,289.809 C394.763,317.157 374.134,346.918 347.24,373.813 Z" id="Shape"></path>
            <path d="M216.66,390.16 C241.082,390.16 278.621,365.582 308.23,335.988 C328.367,315.84 344.621,294.086 353.992,274.738 C367.324,247.176 362.5115,233.777 356.1248,227.39 C349.7381,221.0033 336.3518,216.167 308.7658,229.5775 C289.4068,238.9525 267.6638,255.2025 247.5158,275.3395 C209.5818,313.2025 179.9108,364.1595 199.5978,383.8795 C203.9728,388.2115 209.7818,390.1607 216.6598,390.1607 L216.66,390.16 Z M257.129,284.9 C276.227,265.814 296.668,250.49 314.691,241.775 C325.41,236.5914 333.285,234.6539 338.753,234.6539 C342.5147,234.6539 345.0655,235.59531 346.4757,237.0055 C349.9445,240.4625 350.4991,250.6345 341.7179,268.7905 C332.9367,286.9465 317.6559,307.2595 298.5809,326.3525 C256.0649,368.8755 217.8619,382.8875 209.2329,374.2475 C200.604,365.6069 214.6235,327.4235 257.1389,284.8955 L257.129,284.9 Z" id="Shape"></path>
            <path d="M167.36,263.75 C177.2038,263.75 185.583,260.918 191.52,255 L210.442,236.066 C231.419,215.089 213.5279,164.339 169.723,120.536 C149.477,100.29 126.836,84.716 105.969,76.688 C83.297,67.938 64.91,69.0318 54.192,79.8052 L35.258,98.7152 C14.281,119.6922 32.1721,170.4422 76,214.2552 C107.391,245.6572 142.359,263.7472 167.359,263.7472 L167.36,263.75 Z M63.82,89.41 C67.1012,86.1288 72.1638,84.4569 78.543,84.4569 C84.918,84.4569 92.555,86.1092 101.086,89.3788 C120.215,96.7382 141.172,111.2538 160.094,130.1448 C200.465,170.5158 213.961,213.2698 200.824,226.3948 C194.2615,232.9573 180.656,232.9573 163.57,226.3948 C144.441,219.0354 123.472,204.5198 104.508,185.6288 C64.18,145.3238 50.684,102.5588 63.82,89.4098 L63.82,89.41 Z M44.886,108.355 L45.58522,107.65578 C47.23752,132.34378 65.03022,165.43678 94.91322,195.31978 C115.15922,215.56578 137.81122,231.13978 158.67922,239.15578 C166.34332,242.20268 174.42922,244.04638 182.65622,244.62458 L181.8906,245.3902 C168.7656,258.5152 125.9886,245.03082 85.6406,204.6602 C45.2926,164.2892 31.7496,121.4882 44.8866,108.3552 L44.886,108.355 Z" id="Shape"></path>
            <path d="M252.71,126.52 C270.769,126.52 295.366,113.754 317.952,91.161 C349.956,59.157 362.218,23.141 346.468,7.403 C330.714,-8.339 294.753,3.8796 262.706,35.903 C230.659,67.926 218.44,103.923 234.19,119.673 C238.8189,124.3019 245.194,126.5207 252.71,126.5207 L252.71,126.52 Z M272.331,45.582 C292.862,25.062 315.042,14.18 328.026,14.18 C331.8541,14.18 334.8932,15.14094 336.8424,17.0784 C345.3307,25.5784 334.9401,54.9654 308.3264,81.6094 C281.7174,108.2544 252.3034,118.6214 243.7954,110.1254 C235.2837,101.6293 245.7095,72.1524 272.3304,45.5274 L272.331,45.582 Z" id="Shape"></path>
        </g>
    </g>
</svg>